<svg xmlns="http://www.w3.org/2000/svg" xmlns:xlink="http://www.w3.org/1999/xlink" viewBox="0 0 400.41 89.82">
  <defs>
    <style>
      .cls-1 {
        fill: url(#New_Gradient_Swatch_1);
      }

      .cls-2 {
        fill: url(#New_Gradient_Swatch_1-2);
      }

      .cls-3 {
        fill: url(#New_Gradient_Swatch_1-3);
      }

      .cls-4 {
        fill: url(#New_Gradient_Swatch_1-4);
      }

      .cls-5 {
        fill: url(#New_Gradient_Swatch_1-6);
      }
    </style>
    <linearGradient id="New_Gradient_Swatch_1" data-name="New Gradient Swatch 1" x1="-33.5" y1="45.13" x2="429.58" y2="45.13" gradientUnits="userSpaceOnUse">
      <stop offset="0" stop-color="#ef456e"/>
      <stop offset="1" stop-color="#f05034"/>
    </linearGradient>
    <linearGradient id="New_Gradient_Swatch_1-2" x1="-33.5" y1="44.91" x2="429.58" y2="44.91" xlink:href="#New_Gradient_Swatch_1"/>
    <linearGradient id="New_Gradient_Swatch_1-3" x1="-33.5" y1="64.38" x2="429.58" y2="64.38" xlink:href="#New_Gradient_Swatch_1"/>
    <linearGradient id="New_Gradient_Swatch_1-4" x1="-33.5" y1="55.27" x2="429.58" y2="55.27" xlink:href="#New_Gradient_Swatch_1"/>
    <linearGradient id="New_Gradient_Swatch_1-6" x1="-33.5" y1="34.74" x2="429.58" y2="34.74" xlink:href="#New_Gradient_Swatch_1"/>
  </defs>
  <title>logo</title>
  <g id="Layer_2" data-name="Layer 2">
    <g id="Layer_1-2" data-name="Layer 1">
      <g>
        <path id="path137331" class="cls-1" d="M45.4,64.6V25.13a4.68,4.68,0,0,0-1.24-3.27,4.94,4.94,0,0,0-6.55,0,4.35,4.35,0,0,0-1.24,3.27v25a9.84,9.84,0,0,1-1.77,5.75,11.3,11.3,0,0,1-4.78,4.07,14.41,14.41,0,0,1-6.72,1.51c-4.34,0-7.7-1.15-10.27-3.63S9,51.68,9,46.9V25.13A4.34,4.34,0,0,0,7.7,22a4.34,4.34,0,0,0-3.19-1.33A4.38,4.38,0,0,0,1.24,22,4.23,4.23,0,0,0,0,25.13V46.9A25,25,0,0,0,2.74,59.2a17.75,17.75,0,0,0,7.61,7.7,21.11,21.11,0,0,0,10.18,2.75H41.24A4.23,4.23,0,0,0,45.4,65.4Z"/>
        <path id="path137333" class="cls-2" d="M81.86,22a4.29,4.29,0,0,0-1.24,3.27V64.6a4.63,4.63,0,0,0,7.79,3.28,4.75,4.75,0,0,0,1.24-3.28V25.22A4.7,4.7,0,0,0,88.41,22a4.94,4.94,0,0,0-6.55,0Z"/>
        <path id="path137335" class="cls-3" d="M131.78,60.09a6.07,6.07,0,0,0-10.36,4.34,6.13,6.13,0,0,0,10.44,4.33,6.16,6.16,0,0,0,1.77-4.33,5.92,5.92,0,0,0-1.85-4.34Z"/>
        <path id="path137337" class="cls-4" d="M170.42,79.74a21.82,21.82,0,0,0,2.65-10.8V25.22A4.66,4.66,0,0,0,171.83,22a4.94,4.94,0,0,0-6.55,0A4.33,4.33,0,0,0,164,25.22V68.94a11.59,11.59,0,0,1-3.36,8.58,11.78,11.78,0,0,1-8.58,3.28,4.07,4.07,0,0,0-3.19,1.33,4.26,4.26,0,0,0-1.24,3.18,4.37,4.37,0,0,0,1.24,3.28,4,4,0,0,0,3.19,1.23A22,22,0,0,0,163,87.17a18.79,18.79,0,0,0,7.44-7.43Z"/>
        <path id="path137339" class="cls-2" d="M239.3,23.54a26.34,26.34,0,0,0-25.13,0,22.13,22.13,0,0,0-8.68,8.67A25.25,25.25,0,0,0,202.4,45a24.87,24.87,0,0,0,3.09,12.65,22.29,22.29,0,0,0,8.68,8.76,27.2,27.2,0,0,0,25.22,0,22.87,22.87,0,0,0,8.67-8.76A25.71,25.71,0,0,0,251.16,45,25.2,25.2,0,0,0,248,32.21a22.64,22.64,0,0,0-8.67-8.67Zm-20.62,6.9a15.79,15.79,0,0,1,8.14-2.12,15.44,15.44,0,0,1,8.05,2.12,15,15,0,0,1,5.58,5.93,18.34,18.34,0,0,1,2,8.59,18.06,18.06,0,0,1-2,8.58,14.73,14.73,0,0,1-5.58,5.84,15.35,15.35,0,0,1-8.05,2.13,15.7,15.7,0,0,1-8.14-2.13,14.73,14.73,0,0,1-5.58-5.84,17.17,17.17,0,0,1-2-8.58,17.42,17.42,0,0,1,2-8.59A15,15,0,0,1,218.68,30.44Z"/>
        <path id="path137341" class="cls-5" d="M328.87,32.39a23.06,23.06,0,0,0-8.14-8.85,22,22,0,0,0-28.59,4.87V4.51a4.38,4.38,0,0,0-1.33-3.27A4.6,4.6,0,0,0,287.63,0a4.4,4.4,0,0,0-3.28,1.24,4.34,4.34,0,0,0-1.23,3.27v60.8a3.71,3.71,0,0,0,1.23,2.92,3.75,3.75,0,0,0,3,1.24h20.09a24.51,24.51,0,0,0,12.39-3.19,24.16,24.16,0,0,0,8.85-8.85,24.7,24.7,0,0,0,3.19-12.56A26.75,26.75,0,0,0,328.87,32.39Zm-7.79,21a15.72,15.72,0,0,1-21.68,6,14.63,14.63,0,0,1-5.58-6,16.8,16.8,0,0,1-2-8.49,16.73,16.73,0,0,1,2-8.41,15,15,0,0,1,5.58-5.93,15.62,15.62,0,0,1,16,0,15.82,15.82,0,0,1,5.66,5.93,16.68,16.68,0,0,1,2.12,8.41A16.75,16.75,0,0,1,321.08,53.36Z"/>
        <path id="path137343" class="cls-2" d="M391,22.21a26.81,26.81,0,0,0-10.26-1.86,26.22,26.22,0,0,0-8.85,1.51,16.18,16.18,0,0,0-6.73,4.51,10.81,10.81,0,0,0-2.56,7.35c0,7.17,5.66,11.86,17,14,4.33.88,7.43,1.86,9.29,3.1a5.51,5.51,0,0,1,2.74,4.51,5,5,0,0,1-2.83,4.51C387,61,384.4,61.51,381,61.51a19.19,19.19,0,0,1-7.16-1.33,12.45,12.45,0,0,1-5.05-3.28,4.78,4.78,0,0,0-3.36-1.59,5.33,5.33,0,0,0-3.1,1.24A4,4,0,0,0,360.59,60a3.55,3.55,0,0,0,1.15,2.74,20.91,20.91,0,0,0,8.32,4.87,33.79,33.79,0,0,0,11.33,1.86,25.59,25.59,0,0,0,10.26-1.86,15,15,0,0,0,6.55-5.22A13.53,13.53,0,0,0,400.41,55,11.38,11.38,0,0,0,396.34,46c-2.65-2.3-7.25-4.07-13.62-5.4a35.56,35.56,0,0,1-7.17-1.95,7.56,7.56,0,0,1-3.37-2.21,4.68,4.68,0,0,1-.88-3,4.1,4.1,0,0,1,2.57-3.8,14.78,14.78,0,0,1,6.72-1.42,19.79,19.79,0,0,1,6,.89A13.78,13.78,0,0,1,391.3,32a5.83,5.83,0,0,0,4.16,1.68,3.92,3.92,0,0,0,2.48-.71,3.51,3.51,0,0,0,1.5-2.74,5,5,0,0,0-1.15-2.83A18.52,18.52,0,0,0,391,22.21Z"/>
      </g>
    </g>
  </g>
</svg>
