<svg xmlns="http://www.w3.org/2000/svg" xmlns:xlink="http://www.w3.org/1999/xlink" viewBox="0 0 127.99 127.99">
  <defs>
    <style>
      .cls-1 {
        fill: url(#New_Gradient_Swatch_1);
      }

      .cls-2 {
        fill: #fff;
      }
    </style>
    <linearGradient id="New_Gradient_Swatch_1" data-name="New Gradient Swatch 1" y1="63.99" x2="127.99" y2="63.99" gradientUnits="userSpaceOnUse">
      <stop offset="0" stop-color="#ef456e"/>
      <stop offset="1" stop-color="#f05034"/>
    </linearGradient>
  </defs>
  <title>Symbol</title>
  <g id="Layer_2" data-name="Layer 2">
    <g id="Layer_1-2" data-name="Layer 1">
      <g>
        <rect class="cls-1" width="127.99" height="127.99" rx="16" ry="16"/>
        <g>
          <path id="path137331" class="cls-2" d="M61.07,107.82V63.73a5.18,5.18,0,0,0-8.7-3.66A4.85,4.85,0,0,0,51,63.73V91.61A11,11,0,0,1,49,98a12.74,12.74,0,0,1-5.34,4.55,16.1,16.1,0,0,1-7.51,1.68c-4.85,0-8.6-1.28-11.47-4.05s-4.25-6.82-4.25-12.16V63.73a5.07,5.07,0,0,0-5-5,4.91,4.91,0,0,0-3.66,1.48,4.78,4.78,0,0,0-1.39,3.56V88.05c0,5.44,1,10,3.07,13.74a19.84,19.84,0,0,0,8.5,8.6,23.55,23.55,0,0,0,11.37,3.07H56.42a4.47,4.47,0,0,0,3.26-1.39,4.54,4.54,0,0,0,1.39-3.36Z"/>
          <path id="path137333" class="cls-2" d="M81.79,60.17a4.88,4.88,0,0,0-1.38,3.66v44a5.18,5.18,0,0,0,8.7,3.66,5.26,5.26,0,0,0,1.38-3.66v-44a5.18,5.18,0,0,0-8.7-3.66Z"/>
          <path id="path137335" class="cls-2" d="M117.56,102.78a6.57,6.57,0,0,0-9.59,0,6.85,6.85,0,0,0,9.68,9.69,6.89,6.89,0,0,0,2-4.85,6.59,6.59,0,0,0-2.07-4.84Z"/>
        </g>
      </g>
    </g>
  </g>
</svg>
